REM MD5 8e225785939b0149c8de06abcdeb64ba
FILE "Sony Computer Entertainment Hyper Fan Book (Japan).bin" BINARY
  TRACK 01 MODE2/2352
    INDEX 01 00:00:00
  TRACK 02 AUDIO
    INDEX 00 56:54:39
    INDEX 01 56:57:39
  TRACK 03 AUDIO
    INDEX 00 59:31:07
    INDEX 01 59:34:07
REM LEADOUT 63:05:72
